<svg width="64" height="64" viewBox="0 0 64 64" fill="none" xmlns="http://www.w3.org/2000/svg">
<g clip-path="url(#clip0_3289_21767)">
<path d="M18.0735 51.4994C12.178 47.2686 8.29392 40.3674 8.29392 32.5645C8.29392 23.0277 14.0854 14.8087 22.3044 11.2021L25.4255 4.02344C12.282 6.83246 2.39844 18.5541 2.39844 32.5645C2.39844 42.9683 7.87777 52.089 16.0621 57.2562L18.0388 51.4994H18.0735Z" fill="#FFDD00"/>
<path d="M31.6981 25.3853L48.3095 0H32.0102L17.2715 33.8124H28.8197L18.4506 63.9487L45.6739 25.3853H31.6981Z" fill="#FFDD00"/>
<path d="M48.0712 8.42578L44.8461 13.3849C50.915 17.5811 54.9378 24.621 54.9378 32.5626C54.9378 45.4286 44.4646 55.8671 31.6332 55.8671C30.9743 55.8671 30.3154 55.8324 29.6565 55.7631L25.8418 61.173C27.7145 61.5545 29.6565 61.7626 31.6332 61.7626C47.7591 61.7626 60.8332 48.6885 60.8332 32.5626C60.8332 22.5403 55.7701 13.697 48.1059 8.46046L48.0712 8.42578Z" fill="#FFDD00"/>
</g>
<defs>
<clipPath id="clip0_3289_21767">
<rect width="58.4" height="63.9487" fill="white" transform="translate(2.40039)"/>
</clipPath>
</defs>
</svg>
