<svg width="64" height="64" viewBox="0 0 64 64" fill="none" xmlns="http://www.w3.org/2000/svg">
<g clip-path="url(#clip0_3289_21772)">
<g clip-path="url(#clip1_3289_21772)">
<path d="M32.0332 -0.00195312C31.2832 -0.00195312 30.6894 0.591838 30.6894 1.34189V6.68601C30.6894 7.43607 31.2832 8.02986 32.0332 8.02986C32.7833 8.02986 33.377 7.43607 33.377 6.68601V1.34189C33.377 0.591838 32.7833 -0.00195312 32.0332 -0.00195312ZM13.1569 7.81109C12.8131 7.81109 12.4693 7.9361 12.2193 8.21737C11.688 8.74866 11.688 9.56121 12.2193 10.0925L16.0008 13.874C16.5321 14.4053 17.3447 14.4053 17.876 13.874C18.4073 13.3427 18.4073 12.5302 17.876 11.9989L14.0945 8.21737C13.8444 7.96735 13.5007 7.81109 13.1569 7.81109ZM50.8783 7.81109C50.5345 7.81109 50.1907 7.9361 49.9407 8.21737L46.1592 11.9989C45.6279 12.5302 45.6279 13.3427 46.1592 13.874C46.6905 14.4053 47.503 14.4053 48.0343 13.874L51.8158 10.0925C52.3471 9.56121 52.3471 8.74866 51.8158 8.21737C51.5658 7.96735 51.222 7.81109 50.8783 7.81109ZM32.0332 11.9989C23.9076 11.9989 16.0321 18.3118 16.0321 27.2499C16.0321 38.1882 23.7514 40.9384 24.6264 48.0326H39.4712C40.3463 40.9384 48.0656 38.157 48.0656 27.2499C48.0656 18.3118 40.19 11.9989 32.0645 11.9989H32.0332ZM30.5331 15.4366C31.4082 15.4054 32.127 15.8429 32.127 16.718C32.127 17.4055 31.5332 18.0618 30.8456 18.0931C25.8765 18.6868 22.0325 22.9059 22.0325 28.0313C22.0325 29.0626 22.1888 30.0314 22.47 30.969C22.7513 31.6565 22.3138 32.5316 21.6262 32.7503C20.9074 32.9691 20.0949 32.4691 19.9386 31.7503C19.5636 30.5627 19.3761 29.3438 19.3761 28.0313C19.3761 21.5621 24.2827 16.1867 30.5644 15.4366H30.5331ZM5.34384 26.6874C4.59379 26.6874 4 27.2812 4 28.0313C4 28.7813 4.59379 29.3751 5.34384 29.3751H10.688C11.438 29.3751 12.0318 28.7813 12.0318 28.0313C12.0318 27.2812 11.438 26.6874 10.688 26.6874H5.34384ZM53.3784 26.6874C52.6284 26.6874 52.0346 27.2812 52.0346 28.0313C52.0346 28.7813 52.6284 29.3751 53.3784 29.3751H58.7226C59.4726 29.3751 60.0664 28.7813 60.0664 28.0313C60.0664 27.2812 59.4726 26.6874 58.7226 26.6874H53.3784ZM24.6889 50.6891V53.3455H39.3775V50.6891H24.6889ZM24.6889 56.0332V57.377C24.6889 58.9084 25.939 60.0335 27.3454 60.0335H36.6898C38.0961 60.0335 39.3462 58.9084 39.3462 57.377V56.0332H24.6577H24.6889ZM29.3455 61.3773C29.3455 62.8462 30.5331 64.0338 32.002 64.0338C33.4708 64.0338 34.6584 62.8462 34.6584 61.3773H29.3143H29.3455Z" fill="#FFDD00"/>
</g>
</g>
<defs>
<clipPath id="clip0_3289_21772">
<rect width="64" height="64" fill="white"/>
</clipPath>
<clipPath id="clip1_3289_21772">
<rect width="56.0352" height="64.0357" fill="white" transform="translate(4)"/>
</clipPath>
</defs>
</svg>
