<svg width="64" height="64" viewBox="0 0 64 64" fill="none" xmlns="http://www.w3.org/2000/svg">
<g clip-path="url(#clip0_3289_21766)">
<path d="M48.1763 37.9586C45.4503 44.3988 40.3731 49.7826 31.6159 55.9161C22.8586 49.8167 17.7814 44.3988 15.0554 37.9586C12.3294 31.5525 11.5798 23.6471 11.1709 12.4023C14.851 12.4705 17.9518 12.232 20.9845 11.5164C24.4601 10.6986 27.7313 9.26743 31.6499 7.1207C35.5345 9.3015 38.8398 10.6986 42.3154 11.5164C43.8488 11.8912 45.3822 12.1297 47.0178 12.266L31.5136 36.1526L22.9267 23.6471H15.4643L29.0262 43.4447L31.6159 47.2611L34.1374 43.4106L58.3988 5.894L55.0595 6.09845C51.2772 6.33698 47.3926 6.37105 43.6784 5.4851C40.4072 4.70138 37.2723 3.27023 33.2515 0.953124L31.6159 -0.000976562L29.9803 0.953124C25.9594 3.27023 22.8245 4.73545 19.5533 5.4851C16.2821 6.26883 12.8065 6.40513 8.17225 6.09845L4.79883 5.894L4.90105 9.26743C5.30995 23.0337 5.99145 32.4044 9.36488 40.3438C12.8065 48.4537 18.8037 54.7235 29.7758 62.0837L31.5818 63.2763L33.3878 62.0837C44.3599 54.7235 50.3571 48.4196 53.7987 40.3438C56.9677 32.8814 57.7514 24.1923 58.1944 11.8231L51.4816 22.1478C50.9364 28.5198 49.9823 33.597 48.1423 37.9586H48.1763Z" fill="#FFDD00"/>
</g>
<defs>
<clipPath id="clip0_3289_21766">
<rect width="53.6" height="63.2773" fill="white" transform="translate(4.80078)"/>
</clipPath>
</defs>
</svg>
