<svg width="64" height="64" viewBox="0 0 64 64" fill="none" xmlns="http://www.w3.org/2000/svg">
<g clip-path="url(#clip0_3289_21765)">
<g clip-path="url(#clip1_3289_21765)">
<path d="M15.3092 29.7329L23.9258 36.2254L20.8398 46.5252C20.5994 47.3267 21.0402 48.2084 21.8818 48.4489C22.3227 48.5691 22.8437 48.4889 23.2044 48.2485L32.0213 42.0365L40.8383 48.2485C41.5196 48.7294 42.5215 48.5691 43.0025 47.8477C43.283 47.4469 43.3632 46.966 43.2028 46.5252L40.1169 36.2254L48.7335 29.7329C49.4148 29.2119 49.5751 28.25 49.0541 27.5687C48.7736 27.1679 48.3327 26.9676 47.8518 26.9676L37.031 26.7672L33.4641 16.5475C33.1836 15.746 32.3019 15.3051 31.5003 15.5857C31.0595 15.746 30.6988 16.1067 30.5385 16.5475L27.0117 26.7672L16.1909 26.9676C15.3493 26.9676 14.668 27.6889 14.668 28.5306C14.668 29.0115 14.9084 29.4523 15.2691 29.7329H15.3493H15.3092ZM28.1339 29.8531C28.7751 29.8531 29.3763 29.4123 29.5766 28.8111L31.9813 21.8377L34.3859 28.8111C34.5863 29.4123 35.1874 29.8531 35.8287 29.8531L43.2028 29.9733L37.3115 34.4219C36.7905 34.8227 36.5901 35.504 36.7504 36.1051L38.9146 43.1587L32.903 38.9506C32.382 38.5899 31.6606 38.5899 31.1396 38.9506L25.1281 43.1587L27.2922 36.1051C27.4926 35.504 27.2922 34.8227 26.7312 34.4219L20.8398 29.9733L28.214 29.8531H28.1339Z" fill="#FFDD00"/>
<path d="M31.94 57.387C45.967 57.387 57.3088 46.0452 57.3088 32.0182C57.3088 17.9912 45.967 6.64941 31.94 6.64941C17.9131 6.64941 6.61133 18.0313 6.61133 32.0182C6.61133 46.0051 17.9932 57.387 31.9801 57.387H31.94ZM31.94 9.73535C44.2437 9.73535 54.2229 19.7145 54.2229 32.0182C54.2229 44.3219 44.2437 54.3011 31.94 54.3011C19.6364 54.3011 9.69726 44.3219 9.65719 32.0583C9.65719 19.7546 19.6364 9.8155 31.94 9.77543V9.73535Z" fill="#FFDD00"/>
<path d="M57.8303 46.6856C57.109 46.2448 56.1471 46.4452 55.7063 47.1666C47.3302 60.2718 29.9367 64.0791 16.8315 55.703C4.56792 47.8879 0.279676 31.9774 7.01262 19.0725C7.45347 18.3511 7.25309 17.3893 6.49162 16.9485C5.73016 16.5076 4.80839 16.708 4.36754 17.4695C4.36754 17.5496 4.28738 17.5897 4.24731 17.6698C-3.64788 33.0194 2.44384 51.8556 17.7533 59.7107C32.0207 67.0448 49.5344 62.3558 58.2712 48.8498C58.712 48.1284 58.5117 47.1666 57.7903 46.7257L57.8303 46.6856Z" fill="#FFDD00"/>
<path d="M61.0358 38.1099C60.1942 37.9095 59.3525 38.3904 59.1521 39.192C58.7915 40.6347 58.2705 42.0374 57.6693 43.36C57.3086 44.1615 57.6693 45.0432 58.4708 45.4039C59.2724 45.7646 60.1541 45.4039 60.5148 44.6024C61.1961 43.0794 61.7171 41.5565 62.1579 39.9534C62.3583 39.1118 61.8774 38.2702 61.0758 38.0698L61.0358 38.1099Z" fill="#FFDD00"/>
<path d="M31.9447 0.797852C23.248 0.797852 14.912 4.44486 9.02066 10.8572C8.4195 11.4984 8.45958 12.4603 9.10081 13.0614C9.74205 13.6626 10.7039 13.6225 11.3051 12.9813C21.8453 1.51924 39.6395 0.797852 51.0615 11.3782C56.8326 16.7084 60.1189 24.2029 60.1189 32.058C60.1189 32.9397 60.1189 33.7813 59.9987 34.6229C59.9185 35.4645 60.5598 36.226 61.4014 36.3061H61.5216C62.3232 36.3061 63.0045 35.705 63.0846 34.9034C63.1648 33.9416 63.2049 32.9797 63.2049 32.058C63.1648 14.7847 49.218 0.797852 31.9447 0.797852Z" fill="#FFDD00"/>
</g>
</g>
<defs>
<clipPath id="clip0_3289_21765">
<rect width="64" height="64" fill="white"/>
</clipPath>
<clipPath id="clip1_3289_21765">
<rect width="62.4" height="62.3198" fill="white" transform="translate(0.800781 0.798828)"/>
</clipPath>
</defs>
</svg>
