<svg width="64" height="64" viewBox="0 0 64 64" fill="none" xmlns="http://www.w3.org/2000/svg">
<g clip-path="url(#clip0_3289_21764)">
<path d="M21.5442 11.3543C21.5442 9.56597 23.0074 8.10276 24.7957 8.10276H39.2002C40.9886 8.10276 42.4518 9.56597 42.4518 11.3543V23.7428H48.955V11.3543C48.955 5.98924 44.5653 1.59961 39.2002 1.59961H24.7957C19.3981 1.59961 15.041 5.98924 15.041 11.3543V23.7428H21.5442V11.3543Z" fill="#FFDD00"/>
<path d="M25.7721 27.6445L8.79883 44.6178V52.1614L33.3157 27.6445H25.7721Z" fill="#FFDD00"/>
<path d="M51.6248 27.9043L17.6133 61.8833H25.1569L55.104 31.9363C54.7788 30.0503 53.4131 28.4896 51.5923 27.9043H51.6248Z" fill="#FFDD00"/>
<path d="M38.809 27.6445L8.89453 57.5915C9.21969 59.4775 10.5854 61.0382 12.3737 61.6235L46.3527 27.6445H38.809Z" fill="#FFDD00"/>
<path d="M30.6836 61.8841H38.1947L55.2005 44.9108V37.3672L30.6836 61.8841Z" fill="#FFDD00"/>
<path d="M49.9962 61.8843C52.8576 61.8843 55.1988 59.5432 55.1988 56.6818V50.4062L43.7207 61.8843H49.9962Z" fill="#FFDD00"/>
<path d="M14.0014 27.6445C11.14 27.6445 8.79883 29.9857 8.79883 32.8471V39.1226L20.2769 27.6445H14.0014Z" fill="#FFDD00"/>
</g>
<defs>
<clipPath id="clip0_3289_21764">
<rect width="46.4" height="60.2842" fill="white" transform="translate(8.80078 1.59961)"/>
</clipPath>
</defs>
</svg>
