<svg width="64" height="64" viewBox="0 0 64 64" fill="none" xmlns="http://www.w3.org/2000/svg">
<g clip-path="url(#clip0_3289_21763)">
<path d="M22.8796 24.7824C22.8796 25.1226 23.1858 25.3948 23.526 25.3948C23.8662 25.3948 24.1724 25.1226 24.1724 24.7824C24.8869 21.7546 27.3363 19.4071 30.3982 18.7948C30.9085 18.6927 31.4528 18.6247 31.9972 18.6247C32.5415 18.6247 33.0858 18.6927 33.5961 18.7948C36.624 19.4071 39.0394 21.7205 39.7879 24.7143C39.7879 25.0886 40.0941 25.3948 40.4683 25.3948C40.8425 25.3948 41.1147 25.1226 41.1147 24.7824C41.9652 21.2442 45.1291 18.6247 48.9394 18.6247C50.1982 18.6247 51.3889 18.9308 52.4436 19.4411C50.1982 10.868 42.7137 4.40404 33.5961 3.72362V2.39682C33.5961 1.51228 32.8817 0.797852 31.9972 0.797852C31.1126 0.797852 30.3982 1.51228 30.3982 2.39682V3.72362C21.2807 4.40404 13.7621 10.868 11.5508 19.4411C12.6054 18.9308 13.7961 18.6247 15.0549 18.6247C18.8312 18.6247 22.0291 21.2442 22.8796 24.7824Z" fill="#FFDD00"/>
<path d="M58.2943 37.7085L57.9201 36.824C57.6819 36.2797 57.1376 35.9055 56.5252 35.9055H50.5376L48.7345 30.3261C48.3263 29.0673 47.1696 28.2168 45.8428 28.2168H18.15C16.8232 28.2168 15.6665 29.0673 15.2582 30.3261L13.4551 35.9055H7.46752C6.85515 35.9055 6.31082 36.2797 6.07267 36.824L5.69844 37.7085C5.35824 38.525 5.76649 39.4096 6.58298 39.7158L10.5294 41.0766L7.39947 43.8323C6.68504 44.4446 6.27679 45.3632 6.27679 46.2817V62.7817H15.3263V58.257H48.5644V62.7817H57.6139V46.2817C57.6139 45.3292 57.2057 44.4446 56.4912 43.8323L53.3613 41.0766L57.3077 39.7158C58.1242 39.4436 58.5325 38.525 58.1923 37.7085H58.2943ZM18.3201 50.2962H11.3459C10.4613 50.2962 9.7469 49.5817 9.7469 48.6972V47.2003C9.7469 46.1797 10.6995 45.4312 11.6861 45.6354L18.6603 47.1323C19.4088 47.3024 19.9191 47.9488 19.9191 48.6972C19.9191 49.5817 19.2046 50.2962 18.3201 50.2962ZM15.4624 39.4776L18.15 31.2446H45.9108L48.5984 39.4776H15.4624ZM54.2459 47.2003V48.6972C54.2459 49.5817 53.5314 50.2962 52.6469 50.2962H45.6727C44.7881 50.2962 44.0737 49.5817 44.0737 48.6972C44.0737 47.9488 44.584 47.3024 45.3325 47.1323L52.3067 45.6354C53.2933 45.4312 54.2459 46.1797 54.2459 47.2003Z" fill="#FFDD00"/>
</g>
<defs>
<clipPath id="clip0_3289_21763">
<rect width="52.8" height="62.0196" fill="white" transform="translate(5.59961 0.799805)"/>
</clipPath>
</defs>
</svg>
